<svg xmlns="http://www.w3.org/2000/svg" xmlns:v="https://vecta.io/nano" fill="none" viewBox="0 0 900 250"><style>.B{fill:#384e85}.C{fill:#2e4277}.D{fill-rule:evenodd}.E{fill:#1b2a4f}.F{fill:#aabafd}.G{fill:#b7c5fd}.H{fill:#8ca1fd}.I{fill:#6bb5fb}</style><g clip-path="url(#A)"><g fill="#fff"><path d="M0 0h900v250H0z"/><g class="D"><path d="M121.2 128.8c-.8-3-1.5-4.4-3-5.4-1.3-1-3.2-1.8-6-2.5-2.9-.5-3-2-3.7-4.4-.2-.7-1.3-.9-1.7-.4l-.2-.2c0-.3-.5-1.3-.4-1.6.1-3.5-1-5.2-3.8-5.9a32 32 0 0 0-5.5 0c-2.6.7-5.2 3-4.8 5.8-.8 1-1.6 1.7-3 2l-8.4 1c-5.6.9-10.8 3.8-14.4 8-.3.4-.4 1-.1 1.4-.2 1-1.5 3.3-.5 4-1.7 3.9-5.5 11.5-5.5 13.6 0 9.2 1 21 10 26 .4.4.5.8.6 1.3.4 1.7 1.9 2.9 3.5 2.8 7.8.2 15.3-.8 23.1-.8 3.4 0 7.6.4 10.6.8 3 .3 6 0 8.8-.8.3.3.8.6 1.3.4a15 15 0 0 0 7.4-4.3c.7-1.2 3.2-4.5 2.2-5.6a18 18 0 0 0-.8-11.5c.3-.6-.1-1.4 0-2l.7-1.2c.2-.7 0-1.6-.3-2.3-.1-.4.2-.8.3-1.1.4-1.7-.6-1.5-1.3-2.7l.2-.8a3 3 0 0 0-.4-1.8.8.8 0 0 0-.8-.4l1.2-3.2c.9-2 1.9-3.8 3-5.6.5-.7-.1-1.5-.9-1.6-2.5-.1-5-.5-7.4-1Z"/></g></g><path fill="#000" d="M113.9 143.4c-1-.4-2.1-.6-3.2-.7l1.8-.2c.4 0 .7 0 1 .3.3.2.4.4.5.7h-.1zm10.7-3.6a10.82 10.82 0 0 0-4.7 1.1c-.7.3-1.2.7-1.4 1.4v1c0 .4 0 .7.3.9h.1l-1.5.9c-.4.3-.9.7-1 1.2l-.1-.2c-.4-1-.9-1.8-1.7-2.3.2 0 .3-.2.2-.4a2 2 0 0 0-1.9-1.6c-1 0-2 .4-3 .9h-1a24 24 0 0 1 2.7.6l2.2.7c1.3.6 2.1 2.3 2 3.8 0 .2-.2 1-.5.9s-.4-.7-.5-1c-.3-.5-.7-.9-1.3-1.1l-2-.8c-.5 0-.9-.2-1.3-.4-.4-.1-.8-.3-1.2-.2-.3 0-.3.4-.1.6l.8.4 1.3.4 2 .7-.2.2c.1.6.3 1.2.1 1.8 0 .5-.5 1-1 .9v-.4c-.2-.4-3-2.2-3.2-1.5.3 0 .6.3.8.4l.7.5.8.6.5.4s-.2.1-.2.3c-.1.3-.3.6-.6.8h-1.2a2.73 2.73 0 0 0-1.3.7c-.8.7-1.2 2-2.3 2.3-.6.3-1.4.1-2 0-.8 0-1.5-.2-2.2 0-.7 0-1.4.3-2 .6l-1.9 1-.3-1a20.7 20.7 0 0 1-.2-5v-1.1l.1-.3 3-1.5h.1l.3-.3c1.5-1 2.7-2.3 3.6-3.9.4-.6.8-1.3 1.3-1.8.5-.7 1.1-1 2-1.2l2.7-.4 1.7-.1 1.1.1c.5.2.9.5 1.2 1a26.8 26.8 0 0 1 1.7 2.3l.3.7.1.3.1.2c-.4 0-.4.7 0 .7 1.8 0-.7-3.5-1-4-.6-.6-1.1-1.5-2-1.8l.6-.8.5-1c0-.1-.3-.3-.4 0l-.4.8-.4 1-1-.2a44.5 44.5 0 0 0 2.5-4l1.2-2.5.7-1.3c0-.2.2-.3.3-.5h.1l.3-.5c.2-.2.4-.2.6-.2h1.6l2.3.1h.7l3.4.3 3 .4a93.7 93.7 0 0 1-4.6 9.4zm-7.5 8.2l-.6.3v-.7l.6.4zm9.3-5.5c-.3.6-.2 1.3.3 1.8.3.2.8.5.8 1 0 .3-.4.6-.5.8a1 1 0 0 0-.1.9c.1.3.6.5.7.8.2.5-.1 1-.3 1.4l-.6 1c-1.1.6-2.1 1.5-3 2.4-.9 1-1.7 2.1-3.2 2l-.3.3a29.9 29.9 0 0 1-3.4 0v-2.4c.2.5.7.7 1.3.6l2.8-.3 1.4-.2c.4-.1 1 0 1.2-.4v-.3h-.7a51.3 51.3 0 0 1-4.5.7c-.4 0-.8.1-1-.2-.6-.5-.3-1.4 0-2l1.1-.2 2-.3 4.1-.5c.3 0 .3-.5 0-.5l-5.9.7-1.5.3-.7.2c-.5 0-.5-.4-.3-.8h.1c.5-.6 1-1 1.6-1.3l2-.5 4.7-1c.3-.1.2-.6-.2-.5l-3.5.8-1.8.4-1.2.3h-.6c-.5-.2-.6-.9-.3-1.3.3-.5.8-.8 1.2-1l2.5-1.2.5-.1c.9-.2 1.8-.3 2.7-.7.2 0 0-.4-.2-.4l-1.9.3-2 .5h-.5v-.2l-.1-.8c.1-.7.6-1 1.2-1.2a12.6 12.6 0 0 1 4.8-1c.3-.1.6-.2.8.2.3.5.4 1.3.5 1.9zm-1.7 20c-.2-.8-.1-1.8-.3-2.7l-.4-1.4-.3-1.2c.4.2.7.6 1 1l.5 1.3c.3 1 .6 2.1.2 3a.35.35 0 0 1-.7 0zm-8.1-12h.7c-.3.2-.5.5-.6.8l-.1-.7zm-2.1 19l-1-1c-.4-.4.1-.9.5-.6l.8 1c.2 0 .3.2.1.4 0 .2-.3.2-.4.1zm-2.2-10.5l2.1-.9c.5-.1.7.6.2.7l-2 .8c-.4.2-.8-.4-.3-.6zm-7.6-.2c-.2-.5.5-.7.7-.2l.6 1.4c.2.4-.5.6-.7.2l-.6-1.4zm-7.5 8.5c-.1.2-.3.3-.5.2-.1-.1-.2-.4-.1-.5l1-1.3c.4-.4 1 .1.6.5l-1 1.1zm-1-48.1l.8.8c.4.3-.1.8-.5.5l-.7-.7c-.2-.1-.3-.3-.2-.5s.4-.2.5-.1zm10.8 11.5l-.4 1.2c0 .5-.7.5-.7 0s.2-1 .5-1.5c.2-.4.8 0 .6.3zm4-9.3c.4-.2.8.4.4.7l-1 .6c-.4.3-.7-.4-.3-.6l1-.7zm-17.3 16.3c0 .5-.8.3-.7-.2 0-.7.2-1.4.4-2 .1-.5.8-.3.7.1l-.4 2.1zM91 146c-.4 0-.4-.8 0-.8.5 0 .9.2 1.3.3.4 0 .3.8-.2.7l-1-.2zm-.9 16.6l-.5.2a368 368 0 0 0-3 1.4l-4 1.8-4.2 1.9-2 .9c-.5.2-1.2.7-1.8.7.2-.3.6-.5.9-.6l1-.5a113.5 113.5 0 0 1 5.9-3l4-2 2-1 1-.5.5-.2h.6c.3-.2.5.3.2.5l-.6.4zm-4.8 7.3c-.1-.1 0-.4.2-.4s.4 0 .5.3c.2.4.4.9.8 1.2.3.4-.2.9-.5.6a5 5 0 0 1-1-1.7zm-3.6-11.5c-.3-.3.2-.8.5-.5l1 1c.3.2-.2.8-.6.4l-.9-1zm-9.6-1.5c-.7.2-1.5.3-2 1v-.1c.6-1.2 2.3-1.7 3.4-2l2.6-.9c-.1-1 .1-2 .2-3a63 63 0 0 0 .2-6.2l-.2-3.1c0-.1.1-.1.2 0l.6 3a25 25 0 0 1 0 6.5l-.2 1.5-.1 1.2 1.5-.4 5-1.1 2.4-.6c.7-.2 1.5-.5 2.3-.6.3 0 .3.4.1.5a9 9 0 0 1-2.2 1l-2.2.6-4.7 1-4.7 1-2.2.7zm-3.7-19.3c-.4.3-.8-.4-.4-.6l1.7-.8c.4-.1.6.6.1.7l-1.4.7zM67 164.4c-.4.2-.8-.4-.4-.7l1.8-.8c.4-.2.8.4.4.6l-1.8.9zm-.7-15.2c.4.3 1 .5 1.5.7.4.2.2.9-.2.7a4 4 0 0 1-1.8-1c-.3-.2.2-.7.5-.4zm4.4-20.6c.4.1.2.8-.2.7l-1.5-.6c-.4-.1-.2-.8.2-.7l1.5.6zm7.6-8.2c.5-.1.7.6.2.7-.6 0-1.1.2-1.7.4-.4.2-.6-.5-.2-.7l1.7-.4zm2.5 20c-.4-.3 0-1 .4-.7l1.4.5c.4 0 .2.8-.2.7-.6-.1-1-.3-1.6-.6zm2.4-11.3c.5-.1.7.6.2.7l-2.4.5c-.4.1-.6-.6-.2-.7l2.4-.5zm10.1-3.5c.5 0 .3.7-.2.7l-1.4-.1c-.5 0-.5-.8 0-.8s1 0 1.6.2zm33 3.7l-3.6-.3h-.1l-1-1.8c-.2-.6-.4-1.2-.8-1.8s-1-1-1.6-1.5l-1 .9c-.4.3-.9-.2-.5-.5a2.36 2.36 0 0 1 .9-.8l-1.1-.6-4.2-2.2-2-.8-1.1-.5c0-.3 0-.6-.3-.8l-.4-.2-.4-.7-.6-1.5a2 2 0 0 0-2-.7c0-.7 0-1.5-.4-2.2a3 3 0 0 0-.4 1.7v1.7l-.8.4c-.5.2-1 .3-1.6.3a19 19 0 0 1-4-.3c-1.4-.3-3.5-.6-4.7-1.3-.8-.4-1.6-1-2.3-1.5a4 4 0 0 0 0-2.5c0-.1-.1-.1-.1 0-.2.7-.2 1.4-.5 2h-.2c-.2-.2-.4 0-.5 0-1.5 2.5-4 2.7-6.6 3.1a50 50 0 0 0-8.5 2 18.6 18.6 0 0 0-8.3 5.5l1 .2c.5.2.3.9-.1.7l-1.5-.2a43.4 43.4 0 0 0-6.7 18.3l1-.6c.3-.2.7.5.3.7l-1.4.7c-.2 1.9-.2 3.8-.2 5.6.1 4.5.7 9 2 13.3a20 20 0 0 0 3 6 10.4 10.4 0 0 0 3.3 2.8c.6.3 1.3.4 1.8.8l.3.5v1.1l.3.3s0 .1 0 0H75l-.3-1c-.2-.5.5-.7.7-.2l.4 1.1 4.4-.2c3.1 0 6.2 0 9.4-.2 4.9 0 9.8-.3 14.6 0l.6-1.1c.2-.4.8 0 .6.3l-.4.8c1 0 2 0 3 .2 1.7.1 3.3.4 5 .6s3.4.1 5-.1c.4 0 .6-.3.6-.5l.3-.3.3-.1.8-.2.8-.1a6.4 6.4 0 0 0 2.8-1.1 11.6 11.6 0 0 0 2.3-2.6 26.4 26.4 0 0 0 1.4-2.5c-.7-.2-1.3-.4-2-.4a.4.4 0 0 1 0-.7c.8 0 1.5.2 2.3.4l.1-.3.2-.6.1-.3.3-1a13.2 13.2 0 0 0 .5-2.8 20.8 20.8 0 0 0 .2-4.4c0-.4 0-.7-.2-1.1l-.2-1.7-.3-1a21.4 21.4 0 0 0-1-2.5h-.1l-.2-.2.8-1.3c.2-.4.4-.8.4-1.2s0-.7-.2-1c-.3-.3-.8-.5-.5-1s.8-1 .3-1.6l-.9-.8c-.3-.3-.4-.7-.4-1.2.3-.8.1-1.6-.2-2.4-.1-.4-.4-.5-.8-.6 1.6-3 3-6 4.4-9.2v-.4c.1-.1 0-.3-.1-.3a21 21 0 0 0-3.5-.5z" class="D"/><path fill="#fff" d="M95 77.2c13.7-.7 14.6 3.3 16.5 5.8 1 1.3 3.4 3.2 3.8 7.4.2 3-1.5 6.4-1.5 9.1 0 1.4 1.6 4.3.9 6.3-1.8 4.4-5.4 9.3-10.1 9.3s-13.4-2.6-18.5-10c-1.7-2.4-5-27.2 8.8-27.9z" class="D"/><g fill="#000" class="D"><path d="M115 99.8c-.4-.4-.6-.6-.7-1V98c1.2-1.6 2.3-5.6 2.3-7.7 0-3-1.1-6-3-8.4a18.9 18.9 0 0 0-15.5-7c-5.7.2-11.7 2.3-15.2 6.7a22.8 22.8 0 0 0 5.3 34c.6.3 2.7.2 2.4-.4-.8-1.8-1.5-5.1-1.6-5.8l.7.4c.4.3 1 .6 1.5.5 0-.5-.3-1-.6-1.4l-1.3-1.4-.6-.5c0-1.2 0-2.3.3-3.5.3-2 1-3.9 1.6-5.8l1.7-1.4c1.3-1.2 2.3-2.6 3.1-4.2l4.9-2.3 2.4-1.3 1.4-.6a15 15 0 0 1-.5 1.8c-.2.5.3.9.8.8a13 13 0 0 0 6.1-3 15.3 15.3 0 0 0 3.5 3.7l-.7 4.8-.4 2.5c0 1 .2 1.6.8 2.2.9 1 .9 2.3.6 3.5l-.2.4v.2l-.2.2-.6 1.2a23.3 23.3 0 0 1-6.2 6.9c-.2 0-.3.2-.5.3l-.3.1-.2.1a4.6 4.6 0 0 1-.8.3h-.1a15.3 15.3 0 0 1-6.8-1.7c-.2 0-.3-.2-.4-.3h-.7c-.3 0-.6.3-.5.6.1.4.3.6.6.9l.9.5 2 .8c1.3.4 2.6.6 4 .7a5 5 0 0 0 2.7-.4 12 12 0 0 0 2.6-1.8 28.56 28.56 0 0 0 4.6-5.2c1.2-1.8 2.1-3.8 1.8-6-.1-.9-.5-1.7-1-2.3zm-10 8.4a4 4 0 0 1-1.6-1.2.7.7 0 0 1-.2-.5.8.8 0 0 1 .9-.7c.2 0 .3.1.5.3.2.4.5.6.9.8.3.2.7.2 1 .2.8 0 1.3-.5 1.9-1a13.9 13.9 0 0 0 .4-.4h.2l.2.2v.2c0 .6-.3 1-.7 1.5-.5.4-1.1.7-1.7.8s-1.3 0-1.9-.2zm2.1-8.7c.7.4 1.7 1.4 1 2.4-.9 1-2.1-.1-2.7-.6-.6-.4-1.2.6-.7 1 4.4 3.3 6.2-2.7 2.8-3.3-.4 0-.6.4-.4.5zm-8-3.8c.1-1 1.5-1.1 1.7-.2.1.8 0 1.6-.4 2.3s-1.3.4-1.3-.3v-1.8zm11-.4c.1-.3.4-.4.8-.3 1 .3.7 1.8.3 2.5-.2.4-.8.5-1.1.2-.5-.6-.8-1.8-.1-2.3v-.1zm-9.7-3.7h.1c.6 0 1.2-.2 1.6.2.2.3.3.7 0 .9-.5.4-1 .2-1.5.3-.5 0-1 0-1.4.2-1 .3-1.8.8-2.6 1.3-.1 0-.2 0-.2-.2.5-.9 1.5-1.7 2.4-2.1.5-.3 1-.5 1.6-.6zm8.6-.4h.2c1.4.3 3.2 1 3.9 2.3v.3h-.2a4 4 0 0 1-.8-.3h-.3a10.8 10.8 0 0 0-3-.8c-.1-.2-.3-.2-.4-.3a.6.6 0 0 1-.2-.3v-.6l.4-.3h.4z"/></g><path d="m225 69.5 2.4-1.4 38.2 22.1-2.4 1.4L225 69.5Z" class="G"/><path d="M263.2 91.6V94L225 72v-2.5l38.2 22Z" class="H"/><path d="m247.7 82.7 3.3-1.9v3.3l-3.3 2v-3.4Z" class="E"/><path d="m238.6 77.5 3.3-2 9 5.3-3.2 2-9-5.3Z" class="B"/><path d="M247.7 82.7V86l-9-5.2v-3.3l9 5.2Z" class="C"/><path fill="#798ffe" d="m263.2 91.6 2.4-1.4v2.4l-2.4 1.4v-2.4Z"/><path d="m248.2 82.9 2.3-1.4 15.1 8.7-2.4 1.4-15-8.7Z" class="G"/><path d="M263.2 91.6V94l-15-8.7v-2.4l15 8.7Z" class="H"/><path d="M242.7 57.5v21.9l2.6 1.5V57.5h-2.6Z" class="G"/><path d="M245.3 57.5V81l2.6-1.5v-22h-2.6Z" class="H"/><path d="M265.4 60.3V68c0 .6-.4 1.3-1.3 1.8l-5.3 3.2c-1.8 1-4.7 1-6.5 0l-23-13.3c-.9-.5-1.3-1.2-1.3-1.9v-7.7c0 .6 24.3 15 24.3 15a6.8 6.8 0 0 0 6.5 0s6.6-4.3 6.6-5Z" class="C"/><path d="M250.5 66.1 231 55c-.4-.3-1 0-1 .5V58c0 .5.3.9.7 1.1l19.5 11.3c.5.2 1 0 1-.6v-2.5c0-.5-.3-1-.7-1.2Z" class="B"/><path d="M264 58.4c1.9 1 1.9 2.7.1 3.7l-5.3 3.2c-1.8 1-4.7 1-6.5 0l-23-13.3c-1.7-1-1.7-2.7 0-3.7l5.4-3.2c1.7-1 4.6-1 6.4 0l23 13.3Z" class="E"/><path d="m249.1 66.7-5.3-3v2l5.3 3v-2Z" class="I"/><path d="M265.4 50v8c0 .7-.4 1.3-1.3 1.8l-5.3 3.2c-1.8 1-4.7 1-6.5 0l-23-13.3c-.9-.5-1.3-1.2-1.3-1.8V40c0 .7 24.3 15.1 24.3 15.1 1.8 1 4.7 1 6.5 0 0 0 6.6-4.3 6.6-5Z" class="C"/><path d="M250.5 56 231 44.7c-.4-.3-1 0-1 .5v2.6c0 .5.3.9.7 1.1l19.5 11.3c.5.3 1 0 1-.6v-2.5c0-.5-.3-1-.7-1.1Z" class="B"/><path d="M264 48.2c1.9 1 1.9 2.7.1 3.8l-5.3 3.1c-1.8 1-4.7 1-6.5 0l-23-13.2c-1.7-1-1.7-2.8 0-3.8l5.4-3.1c1.7-1 4.6-1 6.4 0l23 13.2Z" class="E"/><path d="m249.1 56.5-5.3-3v2l5.3 3v-2Z" class="I"/><path d="M265.4 40v7.7c0 .7-.4 1.3-1.3 1.9l-5.3 3.1c-1.8 1-4.7 1-6.5 0l-23-13.2c-.9-.6-1.3-1.2-1.3-2v-7.7c0 .7 24.3 15.1 24.3 15.1 1.8 1 4.7 1 6.5 0 0 0 6.6-4.3 6.6-5Z" class="C"/><path d="M250.5 45.8 231 34.5c-.4-.2-1 0-1 .6v2.5c0 .5.3 1 .7 1.2L250.2 50c.5.3 1 0 1-.5v-2.6c0-.5-.3-.9-.7-1.1ZM264 38c1.9 1 1.9 2.7.1 3.8l-5.3 3.1c-1.8 1-4.7 1-6.5 0l-23-13.2c-1.7-1-1.7-2.7 0-3.8l5.4-3.1c1.7-1 4.6-1 6.4 0l23 13.2Z" class="B"/><path d="m249.1 46.4-5.3-3v2l5.3 3v-2Z" class="I"/><path fill="#c4c4c4" d="M119.6 94.4c-.6.5-.6 1.5 0 2l9.5 9.6a1.5 1.5 0 1 0 2.1-2l-8.5-8.6 8.5-8.5a1.5 1.5 0 1 0-2-2l-9.6 9.5Zm109.5-.5H120.6v3h108.5v-3Zm16.1-16a16 16 0 0 1-16 16v3a19 19 0 0 0 19-19h-3Z"/><path fill="#cecccc" d="M95.6 71a1.5 1.5 0 0 0 3 0h-3ZM225 39.8c.5-.6.5-1.5 0-2.1l-9.6-9.6a1.5 1.5 0 0 0-2.1 2.2l8.5 8.4-8.5 8.5a1.5 1.5 0 0 0 2.1 2.2l9.6-9.6ZM98.6 71v-8.3h-3V71h3ZM121 40.2h103v-3H121v3ZM98.6 62.7c0-12.4 10-22.5 22.5-22.5v-3a25.5 25.5 0 0 0-25.5 25.5h3Z"/><path d="m807 113 37.3-21.3v61.6L806.8 175v-62Z" class="E"/><path d="M807 113v62l-29-16.7V96.7l29 16.3Z" class="C"/><path d="M805 137.7v4.8l-25-14.4v-4.8l25 14.4Zm-25-.5 25 14.3-.1 4.9-25-14.4v-4.8Zm0 14.5 25 14.4-.1 5.6-25-14.4v-5.6Z" class="B"/><path d="M781 156.7v-3.1l22.8 13.1v3.1L781 156.7Z" class="C"/><path d="m780 130.2 25 14.4v4.8l-25-14.3v-4.9Z" class="B"/><g class="F"><path d="m798 149 1.4 1.4 4 2.3v.8l-4-2.4H798l-11.2-6.5-1.3-1.4-4-2.4v-.8l4 2.4h1.3l11.3 6.5Z"/><path d="m798 149 1.4 1.4 4 2.3v.8l-4-2.4H798l-11.2-6.5-1.3-1.4-4-2.4v-.8l4 2.4h1.3l11.3 6.5Zm0-7 1.4 1.4 4 2.4v.8l-4-2.4H798l-11.3-6.5-1.3-1.5-4-2.3v-.8l4 2.4h1.3L798 142Zm0-7 1.4 1.5 4 2.3v.8l-4-2.3H798l-11.2-6.6-1.3-1.4-4.1-2.3v-.8l4 2.3h1.4L798 135Z"/></g><path d="m780 111.6 25 14.4v9.3l-25-14.4v-9.3Zm25 2.6v9.3L780 109v-9.3l25 14.4Z" class="B"/><path d="M797 122.7v2.8l-2.5-1.4v-2.9l2.5 1.5Zm0-8v2.9l-2.5-1.5v-2.8l2.5 1.4Zm-13.7.1v2.9l-2.4-1.5v-2.8l2.4 1.4Zm0 3.9v2.8l-2.5-1.4v-2.9l2.5 1.5Zm3.4 1.9v2.9l-2.5-1.4v-2.9l2.5 1.4Zm0-3.8v2.8l-2.4-1.4v-2.9l2.4 1.5Zm3.4 5.8v2.9l-2.4-1.5v-2.8l2.4 1.4Zm.1-3.9v2.9l-2.5-1.4v-2.9l2.5 1.4Zm3.3 5.9v2.8l-2.4-1.4v-2.9l2.4 1.5Zm.1-3.9v2.9L791 122v-2.8l2.5 1.4Zm3.4 5.8v2.9l-2.5-1.4v-3l2.5 1.4Zm-6.8-15.7v2.8l-2.5-1.4v-2.9l2.5 1.5Zm10.2 17.7v2.9l-2.5-1.5v-2.8l2.5 1.4Z" class="C"/><path d="M802.7 130.3c.5.3.8 1 .8 1.5s-.3.7-.8.5c-.5-.3-.8-1-.8-1.5s.3-.7.8-.5Z" class="F"/><path d="M790.2 106.9v2.8l-2.5-1.4v-2.8l2.5 1.4Zm10.2 17.7v2.9l-2.5-1.4v-2.9l2.5 1.4Zm0-7.9v2.8l-2.5-1.4v-2.9l2.5 1.5Zm-3.4-5.9v2.9l-2.5-1.5v-2.8l2.5 1.4Zm3.4 2v2.8l-2.5-1.4v-2.8l2.5 1.4Zm-17-9.8v2.8l-2.5-1.4v-2.9l2.5 1.5Zm0 3.8v2.9l-2.5-1.4v-2.9l2.5 1.4Zm3.4-1.8v2.8l-2.5-1.5v-2.8l2.5 1.4Zm0 3.8v2.9l-2.5-1.5v-2.8l2.5 1.4Zm6.8 3.9v2.9l-2.5-1.4v-2.9l2.5 1.4Zm0-3.8v2.8l-2.5-1.4v-2.9l2.5 1.5Z" class="C"/><path d="M802.7 114.6c.5.3.9 1 .9 1.5s-.4.7-.9.4c-.4-.2-.8-.9-.8-1.4s.4-.7.8-.5zm0 3.9c.5.3.9.9.9 1.4 0 .6-.4.8-.9.5-.4-.3-.8-.9-.8-1.4 0-.6.4-.8.8-.5zm0 8c.5.2.9.9.9 1.4s-.4.7-.9.5c-.4-.3-.8-1-.8-1.5s.4-.7.8-.4z" class="F"/><path d="M840.6 150.2l-12.9 7.4c-.3.2-.6.8-.6 1.2s.3.6.6.4l12.9-7.4c.4-.2.7-.8.7-1.2s-.3-.6-.7-.4zm-12.9-2.2l12.9-7.4c.3-.2.6-.7.6-1.2 0-.4-.3-.6-.6-.4l-12.9 7.4c-.4.3-.7.8-.7 1.2 0 .5.3.6.7.4zm0-3.7l12.9-7.4c.3-.2.6-.8.6-1.2s-.3-.6-.6-.4l-12.9 7.4c-.4.2-.7.8-.7 1.2s.3.6.7.4zm0-3.7l12.9-7.4c.3-.3.6-.8.6-1.2 0-.5-.3-.6-.6-.4l-12.9 7.4c-.4.2-.7.7-.7 1.2 0 .4.3.6.7.4zm0 11.2l12.9-7.5c.3-.2.7-.7.7-1.1 0-.5-.4-.7-.7-.4l-12.9 7.4c-.4.2-.7.7-.7 1.2 0 .4.4.6.7.3zm0 3.7l12.9-7.4c.4-.3.7-.8.7-1.2 0-.5-.3-.6-.7-.4l-12.9 7.4c-.3.2-.7.7-.7 1.2 0 .4.4.6.7.4z" class="C"/><path d="m780 144 25 14.5v4.8l-25-14.4v-4.8Z" class="B"/><path d="m798 155.8 1.4 1.5 4 2.3v.8l-4-2.3H798l-11.2-6.6-1.3-1.4-4-2.4v-.7l4 2.3h1.3l11.3 6.5Z" class="F"/><path d="M778 96.7 815.3 75l29 16.7-37.3 21.7-29-16.7Z" class="B"/><path fill="#c4c4c4" d="M794 175.7a1.5 1.5 0 1 0-3 0h3Zm-698 2.2c-.5-.5-1.5-.5-2 0l-9.6 9.6a1.5 1.5 0 0 0 2.1 2.1l8.5-8.5 8.5 8.5a1.5 1.5 0 0 0 2.1-2.1l-9.5-9.6Zm695-2.2v7.3h3v-7.3h-3Zm-22.5 29.8H119v3h649.5v-3ZM96.5 183v-4h-3v4h3Zm22.5 22.5c-12.4 0-22.5-10-22.5-22.5h-3c0 14 11.4 25.5 25.5 25.5v-3ZM791 183c0 12.4-10 22.5-22.5 22.5v3c14 0 25.5-11.4 25.5-25.5h-3Zm-657-42.9a1.5 1.5 0 1 0 0 3v-3Zm638.8 2.8c.6-.6.6-1.6 0-2.1l-9.5-9.6a1.5 1.5 0 0 0-2.1 2.1l8.4 8.5-8.4 8.5a1.5 1.5 0 1 0 2 2.1l9.6-9.5ZM134 143h316.8v-3H134v3Zm317 .2h320.8v-3H451v3Zm-1.6-1.6c0 .9.7 1.6 1.6 1.6v-3c.7 0 1.4.6 1.4 1.4h-3Zm1.4 1.4c-.8 0-1.4-.6-1.4-1.4h3c0-.8-.7-1.6-1.6-1.6v3Z"/></g><defs><clipPath id="A"><path fill="#fff" d="M0 0h900v250H0z"/></clipPath></defs></svg>