<?xml version="1.0" encoding="UTF-8"?> <svg xmlns="http://www.w3.org/2000/svg" xmlns:xlink="http://www.w3.org/1999/xlink" xmlns:v="https://vecta.io/nano" fill="none" viewBox="0 0 900 250"><style><![CDATA[.B{fill:#2e4277}.C{fill:#384e85}.D{fill:#aabafd}.E{fill-rule:evenodd}]]></style><g fill="#fff"><path d="M0 0h900v250H0z"></path><path d="M120.6 140.5c-.3-.8 0-1.5.3-2.2.8-2.5 1.7-5 2.9-7.4.4-.7-.3-1.7-1.2-1.5-1.5.2-3 0-4.6 0-.5-1.4-2-2-3.1-2.8l-4-2.5c0-.7-.9-.8-1.4-.4-1.4-.8-3-.7-4.5-1.2-1.1-1.8-1.2-3.7-1.5-5.5-.2-.7 0-1.5-.5-2.1-1.8-2.5-8.7-3.6-11.3-2.1-1.4-.9-1.4.7-1.6 1.6a3 3 0 0 0-.4 1.6c-1.4 3.1-4.8 4.5-7.9 5.6-.3-.4-.9-.3-1.2 0a20 20 0 0 0-7.4 3.1 10 10 0 0 0-5.5 5 1 1 0 0 0-.2.6 36 36 0 0 0-6 19.4c-2.5 1.5 1.2 15 2 17.8.6 1 1.2 3.8 2.6 3.6 1 1 2.5.9 3.8 1-.2.8 0 1.7.2 2.5.3 1 1.8 1 2 0 13 2.4 26.3.4 39.5.8 3.8 0 7.6.2 11.4.4a1.08 1.08 0 0 0 1-1l-2.4-28.5c-.3-2-.4-4-1-5.8z" class="E"></path></g><path d="M90.3 113.3h.2c0 2.5-.6 5.4-2.5 7-1 1-2.3 1.3-3.6 1.8h-.1l-2.2.8c-.5.2-1.1.5-1.6.2l1.2 3a15 15 0 0 0 2.3 3.4c3.6 4 9.3 5.1 14.5 4a13 13 0 0 0 7-3.8c1.4-1.6 2.2-3.7 2.4-5.8h-.2l-1.9-.8c-.6-.4-1.1-.8-1.5-1.3-.3-.3-.6-1-.8-2.2a16 16 0 0 1-.2-2.5h.2c.3.5.4 1.7.6 2.3.2.7.4 1.4.8 1.8.8 1 2 1.3 3 1.7.1-1 1.7-1 1.7.1v.2l.4.2 1.4.9 2.6 1.2a13.6 13.6 0 0 1 3.6 2.5c.4.4.8.8 1 1.2l.4.3c1.6 0 3.3.3 5 .5.4 0 .6.3.4.6l-3.2 7.5v3.1l.3 4.3c.5 5 1.3 10 2 15a567.3 567.3 0 0 1 1.4 13.1v.5c.1.6.2 1.1-.2 1.7-.1.2-.5.3-.8 0l-.4-1v-1a98.3 98.3 0 0 0-.5-6.5c-.4-5-1.3-10-1.8-15.1a109.5 109.5 0 0 1-.6-13l-2.7 5.8-.3.4c-.5 1.2-1.2 2.4-1.9 3.5l-.1.2c-.3.5-.7 1.2-1.2 1.3H112a5.6 5.6 0 0 1-1.4-.2c-.4.7-1.1 1.2-1.9 1.5l-1.7.5h-.2c-.7.2-1.4.3-1.8 1-.3.5-.6 1-1 1.2-.5.4-1 .6-1.6.8l-1.8.4h-.1l-1.2.4-.5.1c-.2 0-.3.2-.5.3 0 .4-.7.7-1.1.7a1 1 0 0 1-.7-.3l-1.1.9a141.7 141.7 0 0 1-13 8.8h.2l.1.1c.5.2 1 .4 1 .9 0 .4-.2.6-.5.7-.5 0-.8-.3-1.1-.6l-.4-.4-.1-.2-2.5 1.4-.2.1c-2.1 1-4.1 2.3-6.2 3.3l-2 .7c.2.8.2 1.5.2 2.3 0 .7-1.1.7-1 0v-.4l.1-1.7c-2 .3-4-.4-4.5-.6l-1.1-1c-.7-.8-1.2-1.7-1.6-2.6a43.2 43.2 0 0 1 2.3-35.7l.1-.3c1-1.7 2-3.5 3.3-5 1.4-1.5 3.1-2.8 5-3.7a26.7 26.7 0 0 1 3.2-1.4c1-.6 2.3-1.2 3.5-1.2l.2.1h.1c.2 0 .3.2.3.4v.1c1.2-.3 2.4-.8 3.5-1.2l.3-.1c1-.3 1.9-.7 2.7-1.3a8 8 0 0 0 1.7-2.4c.5-1.1.8-2.3 1.2-3.5Zm23.1 59c.3-.2.5 0 .6.2.3.7.2 1.7-.2 2.3-.4.7-1.4.4-1.5-.3 0-.8.5-1.8 1.1-2.3Zm2.4-19c0-.1.2-.1.2 0 .2.8.2 1.6.2 2.5a96.2 96.2 0 0 1 .5 8.2l.1 2.7.6-.3 1-.2c.3 0 .6.4.6.8s-.5.6-.8.5l-1.3-.2.1 2 .3 2.8v.3c.2-.2.5-.2.8-.3.5-.2 1-.4 1.4 0 .3.1.4.5.1.7-.3.4-.8.4-1.3.3h-.3a3 3 0 0 1-.7 0v1.7c0 .3-.4.4-.5.1-.3-.8-.4-1.8-.5-2.6l-.2-2.5v-.3a163.6 163.6 0 0 1-.5-13.4v-.2c0-.9 0-1.8.2-2.6Zm-38.3 19 .3-.2h.4l.4.2.8.3c.5.1.8.6.6 1.1-.2.5-.8.6-1.2.4-.4-.1-.7-.4-1-.7v-.1l-.2-.4v-.5Zm23.8-2.3a5 5 0 0 1 1.7.3c.6.2 1.5.4 1.8 1 .1.3 0 .8-.4.9-.7.1-1.3-.3-1.8-.7-.6-.3-1.1-.5-1.5-1 0-.2 0-.5.2-.5ZM80 122l-.7.1-2.8 1.5-3 1.5a16 16 0 0 0-4.9 4.4 38.1 38.1 0 0 0-6 13.3c.4-.4 1-.6 1.5-.8.3-.1.6 0 .7.2v.4c0 .2 0 .5-.4.5l-1.8.6h-.2a42.5 42.5 0 0 0-1 14.1l.7-.2.7-.2c.8-.2 1.1 1 .4 1.2a9 9 0 0 1-.9.2h-.7l.7 4 .1.3c.4 1.7.9 3.4 1.6 5 .3.8.8 1.5 1.3 2.2l1 .8c.2.3 1.2.7 2.3.7 1 0 1.4 0 2-.3 1-.3 2-1 3.1-1.5h.1l1.4-.8c0-.4 0-.8.3-1.2.3-.5.9-.3 1 .2v.3a163.5 163.5 0 0 0 18.7-11.9l.6-.4-.1-.2a8 8 0 0 1-1.5-3.2l-.2-2.2v-2l-.4.2a640.3 640.3 0 0 1-4.4 2.4c-1.7 1-3.5 1.8-5.4 2.6l-.9.4a47 47 0 0 1-7.4 2.5l.3.5c.3.3.3.7 0 1-.3.2-.8 0-1-.3l-.4-.5a1 1 0 0 1-.1-.4l-1.3.2-.8.2c-1.2.2-2.3.7-3.3 1.2-.4.2-.5-.2 0-.4a12 12 0 0 1 3.7-1.6l1.5-.4V154a116.3 116.3 0 0 1 .3-4.3l-.8-.4c-.3-.1-.2-.5 0-.6a2.3 2.3 0 0 1 1 .1v-1.1l.6-3h.2c.5 1 .5 2 .5 3a41.7 41.7 0 0 1 0 6.5l-.1 1.3a61.5 61.5 0 0 0 13.4-6l2.6-1.3 1-.5.5-.3c.4-.2.8-.5 1.3-.5.1 0 .3 0 .3.2.3-.2.6-.3 1-.3l1.5-2 .4-.5a13 13 0 0 1 2.2-2.4l1.3-.7-.3-.1c-.4-.4-.5-1.2-.6-1.7V138c.1-.2.5-.3.6 0l.5 1.2v.1c.2.5.6 1 .6 1.5l-.1.4 1-.4a54.1 54.1 0 0 1 4.6-1.2l.6-2.3-.6-.6c-.3-.1-.4-.4-.6-.6-.2-.2 0-.6.2-.6h.1l1 .2v.1l.5.2.5-1.2.3-.5c.6-1.3 1.2-2.7 2-4 .4-.5.8-.9 1.5-1l2.1.1 2.4.1-.6-.7a12.6 12.6 0 0 0-3.5-2.4l-2.6-1.3-1.4-1.2c-.2 2.8-1.6 5.4-3.6 7.4a17.7 17.7 0 0 1-16.8 3c-1.5-.6-3-1.3-4.2-2.3a1 1 0 0 1-.2.5v.2c-.2 0-.2.2-.3.3a1 1 0 0 1-.7.3c-.6 0-1-.5-.9-1 .1-.4.3-.6.6-.7l.3-.1h.1l.3-.2-1.6-1.6c-1.5-2-3-4.6-2.5-7.1 0-.3.2-.4.3-.6H80Zm16 43.6c.3-.2.6.2.3.5l-.3.3-1 1.1v.1c-.5.6-.9 1.2-1.5 1.4-.8.2-1.6-.7-1.1-1.4.4-.6 1.2-.9 1.8-1.1l1.8-.9Zm-25.3-2.8c.2-.2.6-.1.5.2-.4 1.1-.5 2.6-1.5 3.3-.4.2-.9 0-1.1-.2a1 1 0 0 1-.2-1c.2-.5.8-.8 1.1-1.2l1.2-1Zm41.8 1.2c.3 0 1.2-.4 1.4 0v.3a4 4 0 0 1-1 1.1c-.4.4-.9.7-1.4.9-.8.2-1.3-.7-.7-1.3.4-.4 1-.7 1.6-.9h.1Zm-30-6c-.2-.3 0-.6.3-.4.6.4 1.4.7 2.1 1 .3 0 .6.3.6.6l-.1.4c-.3.3-.6.5-1 .3-1-.5-1.5-1.1-2-2Zm19.3-.7.1-.2c.6.1 1 .4 1.6.7l.7.5c.3.2.5.4.5.8 0 .2-.2.4-.4.5-.6.2-1.3-.4-1.7-.8-.4-.5-.7-1-.8-1.5Zm16.8-.7c-.2-.3.3-.6.6-.4l.8.4.7.6c.5.4 1.2 1.2.6 1.7-.6.4-1.3-.2-1.7-.6l-.7-.8-.3-.9ZM113 130c-.7.2-1 1-1.3 1.6l-2 4-.5 1.3-1.4 2.6 1.4-.2c0-.4.2-1 .4-1.3.1-.5.3-1.2.8-1.5.1 0 .3 0 .3.2 0 .5-.4 1-.7 1.5l-.4.8-.1.2h.8c.8 0 1.8-.1 2.5.3s1.1 1.2.7 2c-.5 1-1.6 1-2.5 1.1l-3.5.5c-1.3.1-2.4.6-3.6.8-.1 0-.2-.1 0-.2.9-.5 2-.9 3-1.2h.1l1.8-.5 1.7-.2c.7 0 2.3 0 2.3-1 0-.6-1.1-.7-1.6-.7-2 0-4.2.5-6.3 1.1l-.4.1-2.5.8c-1 .4-1.6.9-2.3 1.6l-2.2 2.3a88 88 0 0 1-1.8 1.9v1c0 1 0 1.8.2 2.7.1.8.3 1.7.6 2.5l.6.8.1.2.3.3.5-.2h1.2l1-.3 2-.5 1.4-.7c.5-.4.6-.9 1-1.3.7-1 2.3-1 3.3-1.2 1-.2 1.8-.6 2.5-1.2l.1-.4h.2l.2-.3s.1 0 0 0v.2c.7-.2 1.3-.1 2-.1h1.1c.1 0 0 0 0-.1a5.6 5.6 0 0 0 .6-.7 35.3 35.3 0 0 1-8.6 1c-.4 0-.4-.6 0-.6a53 53 0 0 0 8-1h.3c.1 0 .5 0 .7-.2l.2-.2c0-.2-.7-.2-.8-.2H106c-.4 0-.6-.6-.2-.8 1.7-.7 3.5-.8 5.4-1l2.8-.5.2-.1c.6-.1 1.2-.3 1.7-.7-.7-.3-1.6-.2-2.4-.3a54.2 54.2 0 0 0-9.9 0 35 35 0 0 1 10.1-.7h.4c1 0 2 0 2.7.6l.2.3 3-6.2 2.2-4.8.2-.5 1-2a69.4 69.4 0 0 0-10.4-.7Zm-.6 22.1c.2 0 .4 0 .4.2l.1.5v.5l-.5 1.1c0 .3-.4.4-.6.4-.2 0-.4 0-.6-.2-.1-.2-.3-.5-.2-.8.3-.6.7-1.3 1.4-1.7Zm-34.3-.6c.4-.7 1.2-1.3 2-1.2 1.2 0 1.4 1.6.3 2-.7.2-1.6 0-2.2-.4a.3.3 0 0 1-.1-.4ZM66 149.2c-.1-.1 0-.3.2-.2l.8.1.9.4 1.8.5c.2.1.4.4.4.7l-.1.4c-.2.3-.6.4-1 .3-.6-.1-1.2-.6-1.7-1h-.1l-.7-.5-.5-.7Zm21.7-2.4c0-.3.3-.4.5-.3l1.1 1v.1c.3.3.7.8.3 1.1-.4.5-1-.2-1.3-.5l-.6-1.4Zm29-2.1c-.5.5-1.4.8-2.1 1l-2.8.6-2.7.4h4.3c.6 0 1.3 0 1.8.2l.3.2 1.3-2.4ZM82 139c.6-.2 1.2-.4 1.8-.4.2 0 .3.2.2.4-.3.5-.8.8-1.3 1.1l-1.6 1.1c-1 .5-1.9-1-.9-1.5l1.8-.7Zm10.6-1.3 2.7.1c1 0 .7 1.6-.2 1.3l-2.6-1c-.2 0-.2-.4 0-.4h.1Zm-23-2.9h.6l.3.1 1.5.3c.9.4.4 1.9-.5 1.8-.7 0-1.3-.3-1.8-.6s-.8-.7-1.2-1.1c0-.2 0-.3.2-.4h.8Zm45.1-2.9a5 5 0 0 1-1 2.5c-.3.4-.8.4-1.1 0-.4-.5-.2-1.2.1-1.7l.1-.1.6-.9a.7.7 0 0 1 1.3.2Zm-36.4-6c.3-.1.7 0 .7.3.1.4.2 1 .1 1.4l-.1.8-.5.6c-.4.4-1.2.2-1.3-.4 0-.3-.2-.6 0-.9l.2-.6c.3-.5.6-.8 1-1.1Zm31.5 1h.1c.7 0 1.8.2 1.8 1 0 .2-.1.3-.3.4-.4 0-.6-.2-.9-.4l-.7-.4c-.3-.1-.3-.6 0-.6Z" fill="#000" class="E"></path><path d="M92.4 82.5c13.2-.7 19.2 8.5 19.5 12.7.3 2.8-1.4 6.1-1.4 8.7 0 1.3 1.6 4 .9 6-1.7 4.2-5.2 9-9.7 9s-10.4 1.1-15.3-6c-.5-.6-6.4-4.4-7-8C78 96 83 83 92.4 82.6z" fill="#fff" class="E"></path><g fill="#000" class="E"><path d="M91.8 76.7c.5-.5 1.3-.7 2-.7 1 0 1.9.7 3 .7 1 0 2-.3 3.1-.1.7.1 1.3.4 1.7 1 1.5-.5 3 0 4 1.3 1.2-.2 2.4.5 2.8 1.6 1.4 0 2.8 1.2 3 2.7.5.2 1 .6 1.4 1 .3.7.4 1.4.3 2 .7.4 1 1.2 1.1 2 .7.4 1 1.3.8 2 .5.3.7 1 .7 1.5s-.1 1 .1 1.5.2.8.1 1.3v.3l.3.4c.3.6.3 1.3 0 1.9v1.2c.3.4.4.9.4 1.4 0 .5-.4 1-.7 1.4 0 .8-.3 1.6-.8 2.2a2 2 0 0 1-1 2l-.1.9c-.1.3-.3.7-.6 1 .2 1-.4 2-1.5 2.4h-.3a11.4 11.4 0 0 1-5.5 8.5 9.9 9.9 0 0 1-6.1 1.2c-1.2 0-2.3-.2-3.4-.5h-.2a5 5 0 0 1-1.3-.6c-.4-.2-.6-.7-.8-1.1 0-.3.2-.6.5-.6H96a15.7 15.7 0 0 0 3.3.8h.3l.4.1h.7c4.2.3 7.7-3 8.8-7a12.4 12.4 0 0 0 .2-4.7l-.5-4.2a36.6 36.6 0 0 1 0-7.2V94c-.5-.1-1-.4-1.4-.7-.8.5-1.8.5-2.6 0a3 3 0 0 1-3.1 0c-.6.5-1.3.6-2 .5-.3 0-.6-.2-.9-.4h-.5a2.9 2.9 0 0 1-2.6.2L95 94c-.6 0-1.3 0-1.8-.4a4 4 0 0 1-3.3.2 3 3 0 0 1-.8 1v.6c0 .4 0 .7-.2 1 .1.4.2.8 0 1.2 0 .6-.4 1.1-.8 1.5a2.8 2.8 0 0 1-1.6 2.4l-.1.1c-.5.5-1.4.5-2 .2h-.1c-.3 0-.4 0-.5-.2h-.3a4 4 0 0 0-1 .4c-1 .4-1.3 1.2-1.4 2a3 3 0 0 0 .9 2.8c.4.3.9.5 1.4.6.5 0 1-.1 1.5.3 0 .1.1.2 0 .4 0 .3-.3.5-.6.5l1.6 1.8 1.8 1.7a9 9 0 0 1 1.5 2.2l.5 1.5c.3.6.6 1 .2 1.6 0 .2-.4.4-.6.4-.8 0-1-.6-1.2-1.2l-.5-1.5-.1-.3c-.5.2-1 0-1.3-.2a3.1 3.1 0 0 1-2.8-.2h-.2a2 2 0 0 1-2-.2c-.5-.3-.8-.7-1-1a2 2 0 0 1-1.3-.6c-.4-.4-.6-.8-.7-1.3-.4 0-.8-.3-1.2-.6a2 2 0 0 1-.5-1.1c-.5-.2-1-.5-1.3-1-.2-.5-.3-1-.1-1.5a2 2 0 0 1-1.1-1.5v-1.2c-.7-.7-1-1.9-.5-2.9-.8-.8-1-2-.4-3-.4-.4-.6-1-.6-1.6 0-.8.4-1.4.9-2-.4-.4-.5-.9-.5-1.3 0-.7.4-1.3.8-1.8a3 3 0 0 1 1-3.2c-.2-.3-.2-.7-.2-1 .1-.8.7-1.3 1.2-1.6l.1-1.2c.3-.6.8-1 1.3-1.2 0-1.2 1.4-2.2 2.5-1.6-.2-.9.5-1.8 1.5-1.9a3 3 0 0 1 3.3-1.9c.7-1 2-1.3 3.2-.9 1.2-1 2.8-1 4.2-.6ZM83 103.2c.9 0 1.5.6 2 1.3.4.6-.7 1.2-1 .5l-.4-.7-.1.2v.1l-.1.1c0 .2-.2.4-.5.4-.2.1-.5 0-.6-.3-.1-.4.2-.7.5-.9a1 1 0 0 0-.9.3c0-.6.6-1 1.1-1Z"></path><path d="M106.4 107.5c0-.2.4.5.5.6a2.5 2.5 0 0 1 .5 1.3 88.4 88.4 0 0 0 2-.1c.5.2.3 1-.3 1-1.5 0-3 .2-4.6.4-.8 0-1.5.2-2.3.3l-2.2.3c.6-.4 1.4-.6 2-.8a40.5 40.5 0 0 1 4.4-1l-.1-.9v-1.2Zm-2.3-3.6c.7.4 1.7 1.3 1 2.3-.9.8-2-.2-2.7-.6-.5-.3-1.1.5-.6 1 4.3 3 6-2.6 2.6-3.2-.3 0-.5.3-.3.5Zm-10.6-3.5a16.7 16.7 0 0 1 5 0h1l.7.2a.8.8 0 0 1 1 1c-.1.6-.8.8-1.3.4l-.7-.2v.2a5.5 5.5 0 0 0-.2.4c-.1.3-.2.5-.5.6-.3.2-.8 0-.9-.3-.2-.4 0-1 0-1.3l-4-1c-.1 0-.1 0 0 0Zm16.3-1.5h.3c.2.3-.3.7-.5 1a8 8 0 0 1-1.9 1.3l.1.1v.8a1 1 0 0 1-1 .8c-.4 0-.7-.2-.7-.5v-.4a1 1 0 0 1-1-.3 1 1 0 0 1 .3-1.4l1.2-.3 1.2-.4 1.1-.4.6-.2h.3Z"></path><path d="m107.7 114.2-.9-.3a6.2 6.2 0 0 0-5-.3c-.8.3-1.5.9-2.3 1.3l-.6.1a21.6 21.6 0 0 1-2.7-1.2l-.3-.3 1.6-.4 4.5-1.5a7 7 0 0 1 4.3-.1c.6.2 1.2.6 1.9 1l1.1.2c-.2.6-.6 1.2-1 1.7a6 6 0 0 1-.6-.2Zm3.3-4.7c-.2 0-.7.4-.9.7l-.1-.1-.3-.1c-.9-.4-1.6-1-2.3-1.6-.4-.5-1-1-1.5-1.3-.8-.3-1.5-.2-2.3-.1-.8 0-1.6-.2-2.4-.1-.6 0-1.2.3-1.7.7-1 .7-1.7 1.7-2.5 2.6a7 7 0 0 1-3.5 2c-1-.9-1.8-1.9-2.6-3-.7-1-2.7-5.5-3.2-6a1 1 0 0 0-.6-.1c-.4 0-.8.2-1 .6-.2.7 0 1.6 0 2.4a35.1 35.1 0 0 0 1 7.6c.4 1.4 1 2.8 2 3.8s2.5 1.8 4 2.4c1.2.6 2.6 1.2 4 1.6 1.2.5 2.5 1 3.8 1.2 1.5.3 3 .3 4.4-.2l2-1c.7-.5 1.5-1 2.1-1.8a9.8 9.8 0 0 0 1.9-4.9l.3-2.4.1-2.6c0-.4-.5-.5-.7-.3Z"></path></g><path d="m813.3 56.6 26.1-15v43.2L813.3 100V56.6Z" fill="#1b2a4f"></path><path d="M813.3 56.6V100L793 88.3V45.2l20.3 11.4Z" class="B"></path><path d="M811.9 73.9v3.4l-17.5-10.1v-3.4l17.5 10Zm-17.5-.4 17.4 10V87l-17.4-10.1v-3.4Zm0 10.2 17.4 10v4l-17.4-10.1v-3.9Z" class="C"></path><path d="M795.1 87.2V85l16 9.2v2.2l-16-9.2Z" class="B"></path><path d="m794.4 68.7 17.4 10v3.4l-17.4-10v-3.4Z" class="C"></path><g class="D"><path d="m807 81.7 1 1 2.8 1.7v.5l-2.9-1.6h-.9l-7.8-4.6-1-1-2.8-1.6v-.6l2.9 1.7h.9l7.8 4.5Z"></path><path d="m807 81.7 1 1 2.8 1.7v.5l-2.9-1.6h-.9l-7.8-4.6-1-1-2.8-1.6v-.6l2.9 1.7h.9l7.8 4.5Zm0-4.8 1 1 2.8 1.6v.6l-2.8-1.7h-1l-7.8-4.5-1-1-2.8-1.7v-.5l2.9 1.6h.9L807 77Zm0-4.9 1 1 2.8 1.7v.5l-2.8-1.6h-1l-7.8-4.6-1-1-2.8-1.6v-.6l2.9 1.7h1L807 72Z"></path></g><path d="M794.4 55.6 812 65.7v6.5l-17.5-10v-6.6Zm17.5 1.8V64l-17.5-10v-6.6l17.6 10Z" class="C"></path><path d="M806.3 63.4v2l-1.8-1v-2l1.8 1Zm0-5.6v2l-1.8-1v-2l1.8 1Zm-9.6.1v2l-1.7-1v-2l1.7 1Zm0 2.7v2l-1.7-1v-2l1.7 1Zm2.4 1.4v2l-1.7-1v-2l1.7 1Zm0-2.8v2l-1.7-1v-2l1.7 1Zm2.4 4.1v2l-1.7-1v-2l1.7 1Zm0-2.7v2l-1.7-1v-2l1.7 1Zm2.4 4.1v2l-1.8-1v-2l1.8 1Zm0-2.7v2l-1.8-1v-2l1.8 1Zm2.4 4v2l-1.8-1v-2l1.8 1Zm-4.8-11v2l-1.7-1v-2l1.7 1Zm7.2 12.5v2l-1.8-1v-2l1.8 1Z" class="B"></path><path d="M810.3 68.7c.3.2.6.7.6 1 0 .4-.3.6-.6.4s-.6-.7-.6-1c0-.4.3-.6.6-.4z" class="D"></path><path d="M801.5 52.3v2l-1.7-1v-2l1.7 1Zm7.2 12.4v2l-1.8-1v-2l1.8 1Zm0-5.5v2l-1.8-1v-2l1.8 1Zm-2.4-4.2v2l-1.7-1v-2l1.7 1Zm2.4 1.5v2l-1.8-1v-2l1.8 1Zm-11.9-6.9v2l-1.8-1v-2l1.8 1Zm0 2.7v2l-1.8-1v-2l1.8 1Zm2.3-1.3v2l-1.7-1v-2l1.7 1Zm0 2.7v2l-1.7-1v-2l1.7 1Zm4.8 2.7v2l-1.7-1v-2l1.7 1Zm.1-2.7v2l-1.8-1v-2l1.7 1Z" class="B"></path><use xlink:href="#B" class="D"></use><path d="M836.8 82.6l-9 5.2a1 1 0 0 0-.5.9c0 .3.3.4.5.2l9-5.1c.3-.2.5-.6.5-.9s-.2-.4-.5-.3zm-9-1.5l9-5.2c.3-.1.5-.5.5-.8s-.2-.4-.5-.3l-9 5.2a1 1 0 0 0-.5.8c0 .3.2.5.5.3zm0-2.6l9-5.2c.3-.1.5-.5.5-.8s-.2-.4-.5-.3l-9 5.2a1 1 0 0 0-.5.8c0 .3.2.5.5.3zm0-2.6l9-5.2c.3-.1.5-.5.5-.8s-.2-.4-.5-.3l-9 5.2a1 1 0 0 0-.5.8c0 .3.2.5.5.3zm0 7.8l9-5.2c.3-.1.5-.5.5-.8s-.2-.4-.5-.3l-9 5.2a1 1 0 0 0-.5.9c0 .3.2.4.5.2zm0 2.6l9-5.2c.3-.1.5-.5.5-.8s-.2-.4-.5-.3l-9 5.2a1 1 0 0 0-.5.9c0 .3.3.4.5.2z" class="B"></path><path d="m794.4 78.4 17.4 10v3.4l-17.4-10v-3.4Z" class="C"></path><path d="m807 86.6 1 1 2.8 1.6v.6l-2.9-1.7h-.9l-7.8-4.5-1-1-2.8-1.7v-.5l2.9 1.6h.9l7.8 4.6Z" class="D"></path><path d="M793 45.2 819.1 30l20.3 11.7-26.1 15.2L793 45.2Z" class="C"></path><path d="M792 60.4c.6-.6.6-1.5 0-2.1l-9.5-9.5a1.5 1.5 0 1 0-2.1 2l8.5 8.6-8.5 8.5a1.5 1.5 0 1 0 2.1 2l9.5-9.5Zm-684.8.5H791v-3H107.2v3ZM96 72c0-6.1 5-11.1 11.2-11.1v-3C99.4 57.9 93 64.2 93 72h3Z" fill="#cecccc"></path><path d="M791.8 85a1.5 1.5 0 0 0 0-3v3ZM128 125c-.5.5-.5 1.5 0 2l9.6 9.6a1.5 1.5 0 0 0 2.1-2.1l-8.5-8.5 8.5-8.5a1.5 1.5 0 0 0-2.1-2.1l-9.6 9.5Zm664-43H479.6v3h312.1v-3Zm-354.7 42.5H129v3h308.2v-3Zm19.7-19.7c0 10.9-8.8 19.7-19.7 19.7v3a22.7 22.7 0 0 0 22.7-22.7h-3ZM479.7 82a22.7 22.7 0 0 0-22.8 22.8h3c0-11 8.9-19.8 19.8-19.8v-3Z" fill="#c4c4c4"></path><path d="m813.4 176.6 26-15v43.2l-26 15.2v-43.4Z" fill="#1b2a4f"></path><path d="M813.4 176.6V220L793 208.3v-43.1l20.3 11.4Z" class="B"></path><path d="M812 193.9v3.4l-17.5-10.1v-3.4l17.5 10Zm-17.5-.4 17.4 10v3.5l-17.4-10.1v-3.4Zm0 10.2 17.4 10v4l-17.4-10.1v-3.9Z" class="C"></path><path d="M795.2 207.2V205l16 9.2v2.2l-16-9.2Z" class="B"></path><path d="m794.5 188.7 17.4 10v3.4l-17.4-10v-3.4Z" class="C"></path><g class="D"><path d="m807.1 201.7 1 1 2.8 1.7v.5l-2.9-1.6h-.9l-7.8-4.6-1-1-2.8-1.6v-.6l2.9 1.7h.9l7.8 4.5Z"></path><path d="m807.1 201.7 1 1 2.8 1.7v.5l-2.9-1.6h-.9l-7.8-4.6-1-1-2.8-1.6v-.6l2.9 1.7h.9l7.8 4.5Zm0-4.8 1 1 2.8 1.6v.6l-2.8-1.7h-1l-7.8-4.5-1-1-2.8-1.7v-.5l2.9 1.6h.9l7.8 4.6Zm.1-4.9.9 1 2.8 1.7v.5l-2.8-1.6h-1l-7.8-4.6-1-1-2.8-1.6v-.6l2.9 1.7h.9l7.9 4.5Z"></path></g><path d="m794.5 175.6 17.5 10.1v6.5l-17.5-10v-6.6Zm17.5 1.8v6.5l-17.5-10v-6.6l17.5 10.1Z" class="C"></path><path d="M806.4 183.4v2l-1.8-1v-2l1.8 1Zm0-5.6v2l-1.8-1v-2l1.8 1Zm-9.6.1v2l-1.7-1v-2l1.7 1Zm0 2.7v2l-1.7-1v-2l1.7 1Zm2.4 1.4v2l-1.7-1v-2l1.7 1Zm0-2.8v2l-1.7-1v-2l1.7 1Zm2.4 4.1v2l-1.7-1v-2l1.7 1Zm0-2.7v2l-1.7-1v-2l1.7 1Zm2.4 4.1v2l-1.8-1v-2l1.8 1Zm0-2.7v2l-1.8-1v-2l1.8 1Zm2.4 4v2l-1.8-1v-2l1.8 1Zm-4.8-11v2l-1.7-1v-2l1.7 1Zm7.1 12.5v2l-1.7-1v-2l1.7 1Z" class="B"></path><path d="M810.4 188.7c.3.2.6.7.6 1 0 .4-.3.6-.6.4s-.6-.7-.6-1c0-.4.3-.6.6-.4z" class="D"></path><path d="M801.6 172.3v2l-1.7-1v-2l1.7 1Zm7.2 12.4v2l-1.8-1v-2l1.8 1Zm0-5.5v2l-1.8-1v-2l1.8 1Zm-2.4-4.2v2l-1.8-1v-2l1.8 1Zm2.4 1.5v2l-1.8-1v-2l1.8 1Zm-11.9-6.9v2l-1.8-1v-2l1.8 1Zm-.1 2.7v2l-1.7-1v-2l1.7 1Zm2.4-1.3v2l-1.7-1v-2l1.7 1Zm0 2.7v2l-1.7-1v-2l1.7 1Zm4.8 2.7v2l-1.7-1v-2l1.7 1Zm0-2.7v2l-1.7-1v-2l1.7 1Z" class="B"></path><use xlink:href="#B" x="0.1" y="120" class="D"></use><path d="M836.9 202.6l-9 5.2a1 1 0 0 0-.5.9c0 .3.2.4.5.2l9-5.1c.3-.2.5-.6.5-.9s-.2-.4-.5-.3zm-9-1.5l9-5.2c.3-.1.5-.5.5-.8s-.3-.4-.5-.3l-9 5.2a1 1 0 0 0-.5.8c0 .3.2.5.5.3zm0-2.6l9-5.2c.3-.1.5-.5.5-.8s-.3-.4-.5-.3l-9 5.2a1 1 0 0 0-.5.8c0 .3.2.5.5.3zm0-2.6l9-5.2c.3-.1.5-.5.5-.8s-.3-.4-.5-.3l-9 5.2a1 1 0 0 0-.5.8c0 .3.2.5.5.3zm0 7.8l9-5.2c.3-.1.5-.5.5-.8s-.2-.4-.5-.3l-9 5.2a1 1 0 0 0-.5.9c0 .3.2.4.5.2zm.1 2.6l8.9-5.2c.3-.1.5-.5.5-.8s-.2-.4-.5-.3l-9 5.2a1 1 0 0 0-.5.9c0 .3.2.4.5.2z" class="B"></path><path d="m794.5 198.4 17.4 10v3.4l-17.4-10v-3.4Z" class="C"></path><path d="m807.1 206.6 1 1 2.8 1.6v.6L808 208h-.9l-7.8-4.5-1-1-2.8-1.7v-.5l2.9 1.6h.9l7.8 4.6Z" class="D"></path><path d="m793.1 165.2 26.1-15.2 20.3 11.7-26.1 15.2-20.3-11.7Z" class="C"></path><path d="M804.8 196.2a1.5 1.5 0 0 0-3 0h3ZM93.6 179c-.6-.5-1.6-.5-2.2 0l-9.5 9.6a1.5 1.5 0 0 0 2.1 2.1l8.5-8.5 8.5 8.5a1.5 1.5 0 1 0 2.1-2.1l-9.5-9.6Zm708.2 17.3v4h3v-4h-3Zm-22.5 26.5H116.5v3h662.8v-3ZM94 200.2V180h-3v20.2h3Zm22.5 22.5c-12.4 0-22.5-10-22.5-22.5h-3c0 14 11.4 25.5 25.5 25.5v-3Zm685.3-22.5a22.5 22.5 0 0 1-22.5 22.5v3c14 0 25.5-11.4 25.5-25.5h-3ZM129 142.6a1.5 1.5 0 1 0 0 3v-3Zm661.2 21.9c.6-.6.6-1.5 0-2.1l-9.6-9.6a1.5 1.5 0 0 0-2 2.1l8.4 8.5-8.5 8.5a1.5 1.5 0 1 0 2.1 2.1l9.6-9.5Zm-661.2-19h320.4v-3H129v3ZM468.7 165h320.4v-3H468.7v3Zm-11.1-11.1c0 6.1 5 11.1 11.1 11.1v-3a8.2 8.2 0 0 1-8.1-8.1h-3Zm-8.2-8.2c4.5 0 8.2 3.6 8.2 8.2h3c0-6.2-5-11.2-11.2-11.2v3Z" fill="#c4c4c4"></path><defs><path id="B" d="M810.3 57.7c.3.2.6.7.6 1 0 .4-.3.6-.6.4s-.6-.7-.6-1c0-.4.3-.6.6-.4zm0 2.7c.3.2.6.7.6 1 0 .4-.3.6-.6.4s-.6-.7-.6-1c0-.4.3-.5.6-.4zm0 5.6c.3.2.6.7.6 1 0 .4-.3.6-.6.4s-.6-.7-.6-1c0-.4.3-.6.6-.4z"></path></defs></svg> 